<svg width="80" height="80" viewBox="0 0 80 80" fill="none" xmlns="http://www.w3.org/2000/svg">
<path d="M0.000133197 80C0.000132737 74.7471 1.03476 69.5457 3.04494 64.6926C5.05513 59.8396 8.00151 55.4301 11.7158 51.7157C15.4302 48.0014 19.8397 45.055 24.6928 43.0448C29.5458 41.0346 34.7472 40 40.0001 40V80L0.000133197 80Z" fill="#1A1A1A"/>
<path d="M40.0001 40C40.0001 45.2529 41.0348 50.4543 43.0449 55.3073C45.0551 60.1603 48.0015 64.5699 51.7159 68.2842C55.4302 71.9986 59.8398 74.945 64.6928 76.9551C69.5458 78.9653 74.7472 80 80.0001 80L80.0001 40L40.0001 40Z" fill="#FFD400"/>
<path d="M40.0001 40C40.0001 34.7471 38.9655 29.5457 36.9553 24.6926C34.9451 19.8396 31.9987 15.4301 28.2844 11.7157C24.57 8.00138 20.1605 5.055 15.3075 3.04482C10.4544 1.03463 5.253 3.49692e-06 0.000133197 3.49692e-06L0.000135971 40H40.0001Z" fill="#FFD400"/>
<path d="M80.0001 3.49692e-06C80.0001 5.25287 78.9655 10.4543 76.9553 15.3073C74.9451 20.1603 71.9987 24.5699 68.2844 28.2842C64.57 31.9986 60.1605 34.945 55.3075 36.9551C50.4544 38.9653 45.253 40 40.0001 40L40.0001 3.49692e-06H80.0001Z" fill="#1A1A1A"/>
</svg>
